<svg xmlns="http://www.w3.org/2000/svg" xmlns:xlink="http://www.w3.org/1999/xlink" width="381.68" height="377.43" viewBox="0 0 381.68 377.43">
  <defs>
    <clipPath id="clip-path">
      <rect id="Rectangle_454" data-name="Rectangle 454" width="381.68" height="377.43" transform="translate(1440.92 477.18)" fill="none"/>
    </clipPath>
  </defs>
  <g id="Group_629" data-name="Group 629" transform="translate(-1440.92 -477.18)" opacity="0.3" style="mix-blend-mode: multiply;isolation: isolate">
    <g id="Group_628" data-name="Group 628">
      <g id="Group_627" data-name="Group 627" clip-path="url(#clip-path)">
        <path id="Path_263" data-name="Path 263" d="M1472.34,747.311c6.444,12.17-8.915,18.991-13.778,10.918-5.109-8.478,6.444-11.814,6.444-11.814-5.907-5.548-13.067-.893-15.572,3.76s-8.053,22.367,9.843,28.453,32.928-12.886,36.147-23.623c2.105-7.008,6-32.806,9.419-49.7,4.809-23.761,39.471-20.721,67-21.349,20.476-.464,29.711,5.843,31.642,7.369a4.469,4.469,0,0,1,.719.716c1.523,1.926,7.838,11.162,7.368,31.646-.632,27.525,2.417,62.185-21.346,67-16.894,3.418-42.69,7.316-49.7,9.418-10.733,3.224-29.712,18.253-23.621,36.151s23.8,12.349,28.451,9.842,9.31-9.664,3.761-15.57c0,0-3.337,11.551-11.82,6.442-8.066-4.865-1.243-20.222,10.925-13.78s11.806,21.038-.716,27.916c-12.709,6.984-33.642,5.371-39.55-22.011-5.853-27.156,24.7-43.307,44.917-48.854,18.774-5.15,31.629-8.94,36.222-29.994,5.013-22.978,11.457-38.084,2.862-46.672s-24.212-1.7-46.672,2.862c-21.117,4.3-24.84,17.449-29.99,36.222-5.549,20.222-21.7,50.776-48.856,44.92-27.386-5.906-29-26.844-22.015-39.551,6.88-12.524,21.474-12.884,27.918-.716" fill="#b2832c"/>
        <path id="Path_264" data-name="Path 264" d="M1527.553,793.744l.732.738-7.313,7.314-7.068,7.074-.736-.738a9.427,9.427,0,0,0-2.047-10.733l-12.768-12.768s-5.882-5.876-11.29-2.6l-1.365-1.366,7.073-7.076,7.312-7.312,1.361,1.367c-3.265,5.412,2.609,11.29,2.609,11.29l12.771,12.767a9.419,9.419,0,0,0,10.729,2.045" fill="#b2832c"/>
        <path id="Path_265" data-name="Path 265" d="M1715.3,823.189c12.172-6.442,18.991,8.915,10.916,13.78-8.474,5.109-11.811-6.441-11.811-6.441-5.545,5.9-.894,13.062,3.757,15.569s22.373,8.051,28.451-9.843c6.094-17.9-12.88-32.927-23.617-36.151-7.01-2.1-32.807-6-49.7-9.417-23.767-4.811-20.726-39.471-21.35-67-.466-20.484,5.841-29.72,7.363-31.646a4.429,4.429,0,0,1,.724-.717c1.922-1.525,11.158-7.832,31.642-7.368,27.523.628,62.185-2.413,66.994,21.35,3.416,16.89,7.318,42.688,9.419,49.7,3.224,10.737,18.254,29.707,36.151,23.623s12.347-23.8,9.842-28.453-9.663-9.308-15.571-3.76c0,0,11.553,3.336,6.444,11.814-4.867,8.073-20.222,1.252-13.778-10.918s21.029-11.808,27.914.716c6.981,12.707,5.371,33.644-22.007,39.55-27.157,5.857-43.31-24.7-48.856-44.919-5.154-18.774-8.948-31.606-29.994-36.222-21.379-4.688-38.086-11.453-46.672-2.862s-3.965,26.469.607,48.925c4.3,21.118,19.7,22.591,38.477,27.741,20.222,5.548,50.774,21.7,44.921,48.854-5.908,27.382-26.85,28.994-39.555,22.011-12.521-6.878-12.883-21.474-.715-27.916" fill="#b2832c"/>
        <path id="Path_266" data-name="Path 266" d="M1548.22,508.6c-12.168,6.445-18.991-8.914-10.925-13.779,8.483-5.107,11.82,6.444,11.82,6.444,5.549-5.906.894-13.065-3.761-15.57s-22.369-8.051-28.451,9.842,12.888,32.929,23.621,36.15c7.01,2.1,32.806,6,49.7,9.418,23.763,4.81,20.714,39.472,21.346,67,.47,20.482-5.845,29.717-7.368,31.644a4.354,4.354,0,0,1-.719.717c-1.931,1.525-11.166,7.835-31.642,7.366-27.527-.626-62.189,2.417-67-21.349-3.42-16.889-7.314-42.687-9.419-49.7-3.22-10.738-18.25-29.711-36.147-23.626s-12.351,23.8-9.843,28.458,9.665,9.306,15.572,3.756c0,0-11.553-3.334-6.444-11.81,4.863-8.073,20.222-1.252,13.778,10.916s-21.038,11.808-27.918-.716c-6.981-12.705-5.371-33.644,22.015-39.55,27.157-5.858,43.307,24.7,48.856,44.918,5.15,18.775,8.973,31.458,29.99,36.223,21.046,4.769,38.086,11.452,46.672,2.862s2.326-24.267-2.862-46.672c-4.863-20.994-17.448-24.842-36.222-29.994-20.222-5.545-50.77-21.7-44.917-48.854,5.908-27.382,26.841-28.992,39.55-22.013,12.522,6.88,12.88,21.476.716,27.917" fill="#b2832c"/>
        <path id="Path_267" data-name="Path 267" d="M1791.182,584.477c-6.444-12.168,8.911-18.989,13.778-10.916,5.109,8.476-6.444,11.811-6.444,11.811,5.908,5.549,13.067.894,15.571-3.757s8.055-22.369-9.842-28.457-32.927,12.888-36.151,23.625c-2.1,7.008-6,32.806-9.419,49.7-4.809,23.765-39.471,20.722-66.994,21.348-20.484.47-29.72-5.841-31.642-7.366a4.229,4.229,0,0,1-.723-.717c-1.523-1.926-7.83-11.162-7.364-31.644.624-27.525-2.417-62.187,21.35-67,16.89-3.422,42.686-7.315,49.7-9.419,10.737-3.221,29.711-18.254,23.617-36.148-6.078-17.895-23.8-12.35-28.451-9.843s-9.3,9.664-3.756,15.569c0,0,3.336-11.551,11.81-6.444,8.075,4.865,1.256,20.224-10.916,13.78s-11.806-21.038.715-27.918c12.706-6.979,33.647-5.369,39.555,22.013,5.853,27.155-24.7,43.309-44.921,48.854-18.774,5.152-31.143,9.052-36.222,29.994-5.3,21.872-11.452,38.082-2.862,46.672s24.212,1.706,46.672-2.862c21.117-4.295,24.84-17.448,29.994-36.222,5.546-20.222,21.7-50.776,48.856-44.919,27.378,5.906,28.988,26.846,22.007,39.55-6.885,12.525-21.474,12.884-27.914.716" fill="#b2832c"/>
        <path id="Path_268" data-name="Path 268" d="M1735.965,538.045l-.737-.738,7.314-7.314,7.076-7.074.737.739a9.413,9.413,0,0,0,2.047,10.73l12.766,12.768s5.879,5.88,11.3,2.6l1.365,1.368-7.077,7.077-7.313,7.309-1.369-1.367c3.278-5.412-2.6-11.29-2.6-11.29L1746.7,540.09a9.431,9.431,0,0,0-10.737-2.045" fill="#b2832c"/>
        <path id="Path_269" data-name="Path 269" d="M1631.85,575.217a20.875,20.875,0,0,0-20.875,20.877V615.4a20.875,20.875,0,1,1,41.75,0v-19.31a20.875,20.875,0,0,0-20.875-20.877" fill="#b2832c"/>
        <path id="Path_270" data-name="Path 270" d="M1631.85,757.807a20.873,20.873,0,0,0,20.875-20.877v-19.3a20.875,20.875,0,0,1-41.75,0v19.3a20.873,20.873,0,0,0,20.875,20.877" fill="#b2832c"/>
        <path id="Path_271" data-name="Path 271" d="M1540.553,666.514a20.879,20.879,0,0,0,20.88,20.875h19.307a20.876,20.876,0,1,1,0-41.752h-19.307a20.88,20.88,0,0,0-20.88,20.877" fill="#b2832c"/>
        <path id="Path_272" data-name="Path 272" d="M1723.148,666.512a20.877,20.877,0,0,0-20.88-20.875h-19.307a20.876,20.876,0,0,1,0,41.753h19.307a20.878,20.878,0,0,0,20.88-20.878" fill="#b2832c"/>
        <path id="Path_273" data-name="Path 273" d="M1650.616,477.178h-37.711l-8.462,12.047,27.315,27.31,27.316-27.31Z" fill="#b2832c"/>
        <path id="Path_274" data-name="Path 274" d="M1650.616,815.254h-37.711l-8.462,12.048,27.315,27.309,27.316-27.309Z" fill="#b2832c"/>
        <path id="Path_275" data-name="Path 275" d="M1814.145,646.835H1776.43l-8.454,12.05,27.311,27.307,27.311-27.307Z" fill="#b2832c"/>
        <path id="Path_276" data-name="Path 276" d="M1487.1,646.835h-37.719l-8.458,12.05,27.311,27.307,27.319-27.307Z" fill="#b2832c"/>
      </g>
    </g>
  </g>
</svg>
