<svg xmlns="http://www.w3.org/2000/svg" width="1358.22" height="25.862" viewBox="0 0 1358.22 25.862">
  <g id="Group_236" data-name="Group 236" transform="translate(1897.89 -3255.929)">
    <line id="Line_10" data-name="Line 10" x2="646.1" transform="translate(-1185.77 3268.86)" fill="none" stroke="#b2832c" stroke-miterlimit="10" stroke-width="0.854"/>
    <line id="Line_11" data-name="Line 11" x2="664.12" transform="translate(-1897.89 3268.86)" fill="none" stroke="#b2832c" stroke-miterlimit="10" stroke-width="0.854"/>
    <g id="Group_235" data-name="Group 235">
      <path id="Path_441" data-name="Path 441" d="M-1220.69,3274.44c.44.83-.61,1.3-.94.75-.35-.58.44-.81.44-.81a.689.689,0,0,0-1.07.26,1.318,1.318,0,0,0,.67,1.95c1.23.42,2.25-.88,2.47-1.62.14-.48.41-2.25.64-3.4.33-1.63,2.7-1.42,4.59-1.46a3.483,3.483,0,0,1,2.17.5c.02.01.03.03.05.05a3.356,3.356,0,0,1,.5,2.17c-.04,1.88.17,4.26-1.46,4.59-1.16.23-2.92.5-3.4.64-.73.22-2.03,1.25-1.62,2.48a1.306,1.306,0,0,0,1.95.67.686.686,0,0,0,.26-1.07s-.23.79-.81.44c-.55-.33-.09-1.38.75-.94a1.037,1.037,0,0,1-.05,1.91c-.87.48-2.3.37-2.71-1.51-.4-1.86,1.69-2.97,3.08-3.34,1.29-.35,2.17-.61,2.48-2.05.34-1.57.78-2.61.2-3.2s-1.66-.12-3.2.2c-1.45.29-1.7,1.19-2.05,2.48-.38,1.38-1.49,3.48-3.35,3.08-1.88-.4-1.99-1.84-1.51-2.71a1.04,1.04,0,0,1,1.92-.06" fill="#b2832c"/>
      <path id="Path_442" data-name="Path 442" d="M-1216.91,3277.62l.05.05-.5.5-.48.48-.05-.05a.641.641,0,0,0-.14-.73l-.87-.87s-.4-.4-.77-.18l-.09-.09.48-.48.5-.5.09.09c-.22.37.18.77.18.77l.87.87a.641.641,0,0,0,.73.14" fill="#b2832c"/>
      <path id="Path_443" data-name="Path 443" d="M-1204.05,3279.63c.83-.44,1.3.61.75.94-.58.35-.81-.44-.81-.44a.689.689,0,0,0,.26,1.07,1.318,1.318,0,0,0,1.95-.67c.42-1.23-.88-2.25-1.62-2.48-.48-.14-2.25-.41-3.4-.64-1.63-.33-1.42-2.7-1.46-4.59a3.483,3.483,0,0,1,.5-2.17c.01-.02.03-.03.05-.05a3.356,3.356,0,0,1,2.17-.5c1.88.04,4.26-.17,4.59,1.46.23,1.16.5,2.92.64,3.4.22.74,1.25,2.03,2.48,1.62a1.306,1.306,0,0,0,.67-1.95.686.686,0,0,0-1.07-.26s.79.23.44.81c-.33.55-1.38.09-.94-.75a1.037,1.037,0,0,1,1.91.05c.48.87.37,2.3-1.51,2.71-1.86.4-2.97-1.69-3.35-3.08-.35-1.29-.61-2.16-2.05-2.48-1.46-.32-2.61-.78-3.2-.2s-.27,1.81.04,3.35c.29,1.45,1.35,1.55,2.63,1.9,1.38.38,3.48,1.49,3.08,3.34-.4,1.87-1.84,1.99-2.71,1.51a1.03,1.03,0,0,1-.04-1.9" fill="#b2832c"/>
      <path id="Path_444" data-name="Path 444" d="M-1215.49,3258.09c-.83.44-1.3-.61-.75-.94.58-.35.81.44.81.44a.689.689,0,0,0-.26-1.07,1.318,1.318,0,0,0-1.95.67c-.42,1.23.88,2.25,1.62,2.48.48.14,2.25.41,3.4.65,1.63.33,1.42,2.7,1.46,4.59a3.483,3.483,0,0,1-.5,2.17l-.05.05a3.356,3.356,0,0,1-2.17.5c-1.88-.04-4.26.17-4.59-1.46-.23-1.16-.5-2.92-.64-3.4-.22-.74-1.25-2.03-2.47-1.62a1.306,1.306,0,0,0-.67,1.95.686.686,0,0,0,1.07.26s-.79-.23-.44-.81c.33-.55,1.38-.09.94.75a1.037,1.037,0,0,1-1.91-.05c-.48-.87-.37-2.3,1.51-2.71,1.86-.4,2.97,1.69,3.35,3.08.35,1.29.61,2.15,2.05,2.48s2.61.78,3.2.2.16-1.66-.2-3.2c-.33-1.44-1.19-1.7-2.48-2.05-1.38-.38-3.48-1.49-3.08-3.34.4-1.88,1.84-1.99,2.71-1.51a1.027,1.027,0,0,1,.04,1.89" fill="#b2832c"/>
      <path id="Path_445" data-name="Path 445" d="M-1198.86,3263.29c-.44-.83.61-1.3.94-.75.35.58-.44.81-.44.81a.689.689,0,0,0,1.07-.26,1.318,1.318,0,0,0-.67-1.95c-1.23-.42-2.25.88-2.48,1.62-.14.48-.41,2.25-.64,3.4-.33,1.63-2.7,1.42-4.59,1.46a3.483,3.483,0,0,1-2.17-.5c-.02-.01-.03-.03-.05-.05a3.356,3.356,0,0,1-.5-2.17c.04-1.88-.17-4.26,1.46-4.59,1.16-.23,2.92-.5,3.4-.65.74-.22,2.03-1.25,1.62-2.48a1.306,1.306,0,0,0-1.95-.67.686.686,0,0,0-.26,1.07s.23-.79.81-.44c.55.33.09,1.38-.75.94a1.037,1.037,0,0,1,.05-1.91c.87-.48,2.3-.37,2.71,1.51.4,1.86-1.69,2.97-3.08,3.34-1.29.35-2.13.62-2.48,2.05-.36,1.5-.78,2.61-.2,3.2s1.66.12,3.2-.2c1.45-.29,1.7-1.19,2.05-2.48.38-1.38,1.49-3.48,3.35-3.08s1.98,1.84,1.51,2.71a1.033,1.033,0,0,1-1.91.07" fill="#b2832c"/>
      <path id="Path_446" data-name="Path 446" d="M-1202.64,3260.11l-.05-.05.5-.5.48-.48.05.05a.641.641,0,0,0,.14.73l.87.87s.4.4.77.18l.09.09-.48.48-.5.5-.09-.09c.22-.37-.18-.77-.18-.77l-.87-.87a.64.64,0,0,0-.73-.14" fill="#b2832c"/>
      <path id="Path_447" data-name="Path 447" d="M-1209.77,3262.65a1.43,1.43,0,0,0-1.43,1.43v1.32a1.43,1.43,0,0,1,1.43-1.43,1.43,1.43,0,0,1,1.43,1.43v-1.32a1.43,1.43,0,0,0-1.43-1.43" fill="#b2832c"/>
      <path id="Path_448" data-name="Path 448" d="M-1209.77,3275.16a1.43,1.43,0,0,0,1.43-1.43v-1.32a1.43,1.43,0,0,1-1.43,1.43,1.43,1.43,0,0,1-1.43-1.43v1.32a1.43,1.43,0,0,0,1.43,1.43" fill="#b2832c"/>
      <path id="Path_449" data-name="Path 449" d="M-1216.02,3268.91a1.43,1.43,0,0,0,1.43,1.43h1.32a1.43,1.43,0,0,1-1.43-1.43,1.43,1.43,0,0,1,1.43-1.43h-1.32a1.43,1.43,0,0,0-1.43,1.43" fill="#b2832c"/>
      <path id="Path_450" data-name="Path 450" d="M-1203.52,3268.91a1.43,1.43,0,0,0-1.43-1.43h-1.32a1.43,1.43,0,0,1,1.43,1.43,1.43,1.43,0,0,1-1.43,1.43h1.32a1.442,1.442,0,0,0,1.43-1.43" fill="#b2832c"/>
      <path id="Path_451" data-name="Path 451" d="M-1208.48,3255.94h-2.59l-.58.83,1.88,1.87,1.87-1.87Z" fill="#b2832c"/>
      <path id="Path_452" data-name="Path 452" d="M-1208.48,3279.09h-2.59l-.58.82,1.88,1.87,1.87-1.87Z" fill="#b2832c"/>
      <path id="Path_453" data-name="Path 453" d="M-1197.29,3267.56h-2.58l-.58.82,1.87,1.87,1.87-1.87Z" fill="#b2832c"/>
      <path id="Path_454" data-name="Path 454" d="M-1219.68,3267.56h-2.58l-.58.82,1.87,1.87,1.87-1.87Z" fill="#b2832c"/>
    </g>
  </g>
</svg>
